# xmcd CD database file
#
# Track frame offsets:
#	150
#	26540
#	54050
#	81517
#	106092
#	151002
#	190835
#	219815
#
# Disc length: 3077 seconds
#
# Revision: 0
# Processed by: cddbd v1.4PL0 Copyright (c) Steve Scherf et al.
# Submitted via: CDex 1.50
#
DISCID=520c0308
DTITLE=Lutz Potthoff - Personal View
DYEAR=1994
DGENRE=Jazz
TTITLE0=Marcocaine
TTITLE1=Out Of Sight
TTITLE2=Folk Song
TTITLE3=Vrist
TTITLE4=Filou
TTITLE5=Personal View
TTITLE6=April Song
TTITLE7=A Moment's Quier Reflection
EXTD=YEAR: 1994
EXTT0=
EXTT1=
EXTT2=
EXTT3=
EXTT4=
EXTT5=
EXTT6=
EXTT7=
PLAYORDER=
